<?xml version="1.0" encoding="utf-8"?>
<!-- Generator: Adobe Illustrator 22.1.0, SVG Export Plug-In . SVG Version: 6.00 Build 0)  -->
<svg version="1.1" id="Layer_1" xmlns="http://www.w3.org/2000/svg" xmlns:xlink="http://www.w3.org/1999/xlink" x="0px" y="0px"
	 viewBox="0 0 778.8 238.1" style="enable-background:new 0 0 778.8 238.1;" xml:space="preserve">
<style type="text/css">
	.st0{fill:#5EA8A3;}
</style>
<g>
	<g>
		<g>
			<path class="st0" d="M130.7,85.9c1.1-0.5,1.8-0.7,2.6-1.1c10.6-5.4,21.7-6.7,33.3-4.5c1.7,0.3,2.6,1.1,2.7,2.8
				c0.1,0.8,0.2,1.5,0.2,2.3c0,6.2-0.6,6.8-6.7,6.1c-8.6-1-16.8,0.5-24.2,5.4c-2.6,1.7-2.6,2.3-0.3,4.4c6.3,5.6,13.6,6.9,21.4,4.2
				c7.6-2.6,11.6-8.4,13.3-16.2c1.5-7.1-1.5-13-4.5-19c-3.1-6.2-4.7-12.8-3-19.8c2.1-8.7,7.8-14.1,16.3-16.2c9-2.2,17-0.1,22.8,7.5
				c4.1,5.4,4.9,11.8,1.2,18.2c-3,5.1-8.9,7.6-15.4,6.6c-3-0.4-5.4-1.8-7-4.6c-1.6-3-1.2-6.5,1-8.8c2.1-2.2,6.9-3.3,9.4-1.8
				c0.8,0.5,1.7,1.8,1.5,2.5c-0.1,0.8-1.3,1.7-2.2,2.1c-0.8,0.4-1.9-0.1-2.7,0.2c-1,0.4-2.3,1.1-2.4,1.8c-0.1,0.9,0.7,2.2,1.5,2.8
				c2.7,1.8,7.5,0.4,10.1-2.4c5.5-5.9,1-15.4-5.7-17.4c-9.5-3-18.6,2.4-20.5,12.3c-0.8,4.6-0.1,8.8,1.9,12.9c2.2,4.5,4.6,9,6.4,13.6
				c2.5,6.3,3.1,12.9,1.7,19.6c-2.3,11-10.4,18.6-21.6,20.2c-9.3,1.4-18-0.1-25.8-5.4c-0.3-0.2-0.7-0.3-1.4-0.1
				c0.6,0.6,1.1,1.3,1.7,2c3.8,4.4,8.2,8.6,11.4,13.4c4.9,7,7,14.9,4.5,23.5c-0.2,0.6-0.4,1.1-0.6,1.7c-0.7,2-1.8,2.6-3.5,1
				c-0.2-0.2-0.4-0.4-0.6-0.5c-4.7-2-6.3-5.2-6.1-10.6c0.3-6.4-3.6-11.7-8.1-16c-3.2-3.1-7-5.7-10.6-8.4c-0.5-0.4-1.2-0.5-2.2-0.9
				c-0.3,1.2-0.7,2.1-0.8,3c-1.1,12.6,3.6,22.2,14.4,28.8c4.7,2.9,9.3,6,13.8,9.3c2,1.4,3.8,3.2,5.4,5.1c3.9,4.7,3.7,12.1-0.2,17
				c-2.9,3.6-6.8,5.8-10.9,7.8c-2.8,1.4-5.7,2.7-8.2,4.6c-4.6,3.3-5.8,8.5-3.8,13.6c2.1,5.3,5.9,7.8,11.2,7.5
				c4.4-0.3,7.8-3.7,7.7-7.7c-0.2-3.5-2.2-5.3-5.7-4.9c-1.2,0.2-2.3,0.8-3.4,0.8c-1,0-2.2-0.5-3.2-0.7c0.4-1.2,0.4-2.8,1.3-3.4
				c4.2-3.4,11.8-1.5,14.2,3.3c3.2,6.3-0.3,14.5-7.1,16.6c-9.9,3-20.3-4.4-20.9-14.7c-0.5-8.9,3.4-15.4,10.6-20.1
				c2.7-1.8,5.6-3.3,8.2-5.2c3.8-2.7,4.3-5.9,0.9-9.1c-2.8-2.6-6.2-4.8-9.4-6.9c-6.6-4.1-13.5-7.9-19-13.7c-4.6-4.8-8-10.3-9.2-17
				c-0.2-1.1-0.6-2.2-0.9-3.3c-0.2,0-0.4,0-0.6,0c-0.2,0.8-0.6,1.5-0.7,2.3c-1.1,8.4-5.9,14.6-11.8,20.3c-1.8,1.8-4,3.2-6,4.8
				c-1.7,1.4-3.4,1.8-5.4,0.4c-1.8-1.4-3.8-2.6-5.5-4.1c-1-0.8-1-1.7,0.2-2.5c1.1-0.7,2.2-1.6,3.4-2.4c9.2-6.6,12.2-15.8,11.2-26.6
				c-0.2-3.1-1-3.4-3.7-1.7c-5.3,3.3-9.9,7.3-13.5,12.3c-2.6,3.6-4.3,7.5-4.6,12c-0.6,7.8,3.8,12.6,10.2,15.7
				c5.5,2.7,11.5,4.5,17.4,6.6c0.8,0.3,1.6,0.6,2.8,1c-2.8,1.8-5.2,3.4-7.8,4.9c-0.5,0.3-1.4,0.2-2,0.1c-7.6-1.8-15-4.2-21.4-8.6
				c-10.2-6.9-13.2-16-9.1-27.8c2.4-7,7.1-12.3,12.1-17.4c1.6-1.7,3.3-3.4,4.9-5.1c-0.2-0.2-0.2-0.4-0.4-0.6c-0.6,0.3-1.2,0.6-1.8,1
				c-10.4,6.4-21.3,7.3-32.5,2.7c-5.8-2.4-10-6.6-12.6-12.5c-0.8-1.8-0.5-3.1,1.3-4c1.2-0.6,2.3-1.4,3.5-2c5.7-2.6,5.7-2.6,10,1.8
				c7.6,7.7,21.5,7.7,29.1,0c1.8-1.8,1.8-2.4-0.4-3.9c-7.1-4.8-15.1-6.5-23.6-5.6c-7,0.7-13.8,2.3-19.8,6.1c-2,1.3-3.8,2.9-5.4,4.6
				c-3.8,4.5-3.7,10.8,0.9,14.3c4.3,3.4,9.2,6,14.1,8.6c4.6,2.4,9.2,4.5,12.2,9c4.5,6.9,3.8,18.6-1.4,24.7c-5.4,6.4-15.7,8.6-23.1,5
				c-7.1-3.4-9.9-12-6.1-18.9c3.4-6.2,14.5-7.2,18.9-1.7c0.7,0.9,1.2,2.2,1.2,3.3c0,1-0.7,2.3-1.5,2.6c-0.9,0.3-2.2-0.2-3.3-0.5
				c-0.2-0.1-0.5-0.5-0.6-0.7c-2.6-3-5-3.7-7.5-2.2c-2.8,1.7-4.1,5.7-2.7,8.8c1.3,3,3.5,4.8,6.6,5.5c5.6,1.3,11.9-1.4,14.6-6.2
				c3-5.3,2.4-12.8-1.8-16.6c-2.6-2.4-5.9-4.3-9-6c-3.1-1.7-6.6-2.7-9.8-4.2c-12.2-5.8-15.9-19.8-8.4-31c3.4-5.2,8.2-8.9,13.8-11.3
				C45.5,78,61.4,77,77.1,85.2c0.3,0.2,0.6,0.3,1,0.4c0.2,0.1,0.5,0.1,1.1,0.2c1.2-3,1.5-6.2,0.6-9.1c-1.2-3.9-3-7.7-5-11.3
				c-1.2-2.3-3.2-4.2-4.8-6.2c-8.7-11-9.2-23-3.5-35.3C73.1,9.5,84.7,1.6,100.3,0.2c16.6-1.5,30.4,4.1,39.9,18.2
				c5.9,8.7,8.1,18.5,5.6,28.9c-1.1,4.9-4,8.8-6.9,12.7c-2.5,3.4-5.1,6.8-7.2,10.5c-2.1,3.6-2.6,7.8-2.1,11.9
				C130,83.4,130.4,84.5,130.7,85.9z"/>
			<path class="st0" d="M189.1,89.8c1.9,2.4,4.1,4.6,5.7,7.2c2.6,4.4,3.5,9.4,3,14.6c-0.8,7.2-5.2,11.8-11.3,15
				c-3.4,1.8-7.1,2.9-10.5,4.6c-3,1.5-6,3.3-8.5,5.4c-4.6,4-5.4,11-2.6,16.7c2.5,5,8.4,7.7,14.2,6.7c6.4-1.1,9.7-7.8,6.2-12.6
				c-2.3-3.2-6.1-3.4-8.7-0.4c-2.3,2.6-4,3-5.4,1.5c-1.4-1.6-0.8-4.4,1.4-6.2c4.7-4,12.6-3.5,17,1.1c3.7,3.8,3.4,12.5-0.4,16.8
				c-7,7.8-21,6.8-28-1.8c-8.1-10-4.5-25.5,7.5-31.6c4.1-2.1,8.2-4,12.3-6.2c1.8-1,3.5-2.4,5.1-3.8c4.1-3.8,4.7-8.2,2.2-13.2
				c-0.6-1.2-0.7-2.7-0.6-4.1c0.1-3,0.5-6.1,0.7-9.1C188.6,90.2,188.8,90,189.1,89.8z"/>
			<path class="st0" d="M28,80.3c1-2.1,1.9-4.1,2.9-6.2c1.8-3.8,3.8-7.4,5.1-11.4c2.7-7.9-0.6-16.7-7.4-20.6
				c-6.7-3.8-16.1-1.4-19.4,5c-1.8,3.4-2.1,7,0.2,10.2c2,3,4.9,4.7,8.6,4.5c0.8-0.1,1.8-0.2,2.4-0.6c0.8-0.8,1.8-2,1.8-3
				c0-0.6-1.6-1.4-2.6-1.8c-0.6-0.2-1.4,0.2-2-0.1c-1-0.6-2.6-1.4-2.6-2.1c-0.1-0.9,1-2.3,2-2.7c3.9-1.7,9,0.6,10.5,4.4
				c1.4,4-0.6,8.8-4.8,10.2c-5.4,1.8-10.7,1.3-15.2-2.4c-4.3-3.6-5.9-8.5-4.8-14c2.1-10.7,11.9-17.4,23-15.7
				c14.9,2.2,23,15,18.7,29.7c-1.3,4.5-3.6,8.6-5.5,12.9c-0.2,0.5-0.7,1-1.2,1.2c-3,1.1-5.9,2.1-8.9,3.1
				C28.3,80.6,28.2,80.5,28,80.3z"/>
			<path class="st0" d="M67.1,169.5c-0.6,0.8-1,1.4-1.5,2c-2.5,3.2-2.2,5.9,1,8.3c2.1,1.6,4.4,2.9,6.6,4.2
				c8.6,5,13.5,11.9,12.6,22.3c-1,11.1-14.6,18.2-23.8,12.3c-3.8-2.4-6-7.6-5.2-12c1.5-8.4,9.3-9.3,14.6-7c1.4,0.6,2.7,1.8,2,3.6
				c-0.8,1.9-2.4,1.4-3.9,0.9c-0.1,0-0.2-0.1-0.2-0.1c-3.8-1.3-6.4-0.6-7.7,1.8c-1.5,3-0.4,6.6,2.7,8.6c5.8,3.9,13.9,0.4,15.9-7.1
				c1.4-5-0.1-9.6-4.3-12.6c-2.5-1.8-5.3-3.1-8-4.4c-4.1-1.9-7.9-4-10.8-7.5c-4.6-5.6-4.3-13.7,0.6-18.6c1.1-1.1,1.8-1.1,3-0.1
				C62.6,166,64.8,167.6,67.1,169.5z"/>
			<path class="st0" d="M134.9,168.8c-2.7,1-4.6,2-6.7,2.6c-6.1,1.8-12.4,3.2-18.4,5.3c-3.8,1.4-7.7,3.2-11,5.5
				c-3.5,2.5-4.1,7.2-1.8,10.5c2.5,3.8,7.9,5.1,12.3,3.2c4-1.8,6.2-5.6,4.8-9.5c-0.7-2.1-2.3-3.8-3.8-6.1c2.2-0.6,4.6-1.4,7-1.8
				c0.6-0.1,1.8,0.9,2.2,1.7c3.3,5.6,1.4,13.6-4.2,17.1c-6.1,3.8-12.6,4.1-19,0.9c-8.6-4.3-10-15.6-2.6-21.8c3-2.5,6.7-4.4,10.4-5.8
				c6.8-2.6,13.9-4.6,20.9-6.7c0.6-0.2,1.4-0.2,1.9,0C129.3,165.5,131.7,167,134.9,168.8z"/>
		</g>
	</g>
	<g>
		<path class="st0" d="M228.9,19.6c0.5,0,0.9,0,1.4,0c182.3,0,364.6,0,546.9,0c0.5,0,1,0,1.6,0c0,54.9,0,109.9,0,164.9
			c-0.5,0-1,0-1.4,0c-182.3,0-364.7,0-547,0c-0.5,0-1,0-1.4,0C228.9,129.6,228.9,74.5,228.9,19.6z M233,180.4
			c180.7,0,361.2,0,541.9,0c0-52.3,0-104.5,0-156.7c-180.7,0-361.2,0-541.9,0C233,75.9,233,128.1,233,180.4z"/>
		<path class="st0" d="M713,236.3c-0.2-0.1-0.4-0.2-0.6-0.2c-2-0.5-3.2-2.1-3.2-4.1c0-8.6,0-17.1,0-25.6c0-2.1,1.3-3.8,3.4-4.1
			c1.2-0.2,2.5-0.2,3.7,0c2.1,0.3,3.4,2,3.4,4.1c0,1.8,0,3.4,0,5.2c0,1-0.4,1.8-1.4,2.2c-0.6,0.2-1.3,0.6-2,0.9c0-2.3,0-4.6,0-6.8
			c0-0.5,0-0.9-0.1-1.4c-0.2-0.8-1-1.4-1.8-1.4c-0.9,0-1.6,0.6-1.7,1.5c-0.1,0.3,0,0.6,0,0.9c0,7.8,0,15.5,0,23.2c0,0.3,0,0.6,0.1,1
			c0.2,0.8,0.9,1.4,1.7,1.4c0.8,0,1.6-0.6,1.8-1.4c0.1-0.3,0.1-0.6,0.1-1c0-2.9,0-5.8,0-8.6c0-0.5,0-0.8-0.6-1
			c-0.2-0.1-0.5-0.3-0.6-0.6c-0.5-0.9-0.9-1.8-1.4-2.7c1.7,0,3.4-0.1,5,0c0.9,0.1,1,1,1,1.8c0,2.8,0,5.6,0,8.5c0,1.1,0,2.2,0,3.4
			c0,2.5-1.1,3.9-3.5,4.6c-0.2,0-0.2,0.1-0.3,0.2C714.8,236.3,713.8,236.3,713,236.3z"/>
		<path class="st0" d="M405.3,236.3c-1.8-0.5-3.4-1.4-3.6-3.4c-0.2-1.6-0.2-3.3-0.1-5c0-0.5,0.6-1,1-1.3c0.7-0.4,1.5-0.6,2.4-1
			c0,1.8,0,3.4,0,5c0,1.7,0.6,2.6,1.8,2.6c1.2,0,1.7-0.9,1.8-2.6c0.2-3.3-0.5-6.2-2.2-9c-1.2-2-2.2-4.1-3.4-6.2
			c-1.1-2-1.8-4.1-1.6-6.4c0.1-0.9,0-1.8,0-2.6c0.1-2.3,1.8-4.2,4.1-4.3c0.9-0.1,1.8-0.1,2.6,0c2,0.2,3.6,1.8,3.9,3.8v0.1
			c0.2,3.3,0.2,3.4-3.4,4.7c0-1,0-1.9,0-2.9c0-1.8-0.6-2.7-1.8-2.7s-1.8,0.9-1.8,2.7c-0.2,2.7,0.6,5.2,1.9,7.6
			c1.4,2.3,2.6,4.8,3.8,7.2c1,1.8,1.5,3.8,1.4,5.8c-0.1,1.1,0,2.2,0,3.3c0,2.4-1.2,3.8-3.5,4.4c-0.2,0-0.2,0.1-0.3,0.2
			C407.2,236.3,406.3,236.3,405.3,236.3z"/>
		<path class="st0" d="M660.4,236.3c-1.8-0.6-3.4-1.5-3.7-3.6c-0.2-1.5-0.2-3.1-0.1-4.7c0-0.5,0.6-1.1,1-1.4c0.6-0.5,1.5-0.6,2.4-1
			c0,1.7,0,3.3,0,4.8c0,0.3,0,0.7,0,1c0.1,1,0.9,1.8,1.8,1.8s1.7-0.8,1.8-1.8c0.2-3.3-0.1-6.3-1.9-9.2c-1.4-2.3-2.6-4.8-3.9-7.3
			c-0.9-1.8-1.4-3.5-1.3-5.5c0-1,0-1.9,0-2.9c0.1-2.3,1.8-4.2,4.1-4.3c0.9-0.1,1.8-0.1,2.6,0c2,0.2,3.6,1.8,3.9,3.8
			c0,0.1,0,0.2,0,0.2c0.1,3.1,0.3,3.4-3.4,4.6c0-1,0-2,0-3c0-1.8-0.6-2.6-1.8-2.6s-1.8,0.9-1.8,2.6c-0.2,2.8,0.5,5.3,1.9,7.7
			c1.4,2.3,2.6,4.8,3.8,7.2c1,1.8,1.5,3.8,1.4,5.8c-0.1,1.1,0,2.2,0,3.3c0,2.4-1.2,3.8-3.5,4.4c-0.2,0-0.2,0.1-0.3,0.2
			C662.3,236.3,661.4,236.3,660.4,236.3z"/>
		<path class="st0" d="M745,220.8c0-6.1,0-12.2,0-18.2c1.1,0,2.2,0,3.4,0c0,11.1,0,22.2,0,33.2c-2.2,0.6-3.4-0.1-3.9-2.3
			c-1.1-4.9-2.2-9.8-3.3-14.7c-0.1-0.2-0.2-0.5-0.3-0.6c0,5.8,0,11.8,0,17.7c-1.1,0-2.2,0-3.3,0c0-11,0-22.1,0-33.3
			c0.9,0.1,1.8,0.1,2.6,0.2c1,0.2,1.2,1,1.4,1.8c0.9,4.2,1.7,8.5,2.6,12.7C744.4,218.4,744.6,219.6,745,220.8
			C745,220.8,745,220.8,745,220.8z"/>
		<path class="st0" d="M599.2,235.9c0-11.1,0-22.2,0-33.3c0.2,0,0.4-0.1,0.6-0.1c2,0,4,0,6.1,0c2.5,0.1,4.2,1.8,4.2,4.2
			c0,8.3,0,16.6,0,25c0,2.2-1.4,3.8-3.5,4.2c-0.3,0.1-0.6,0.1-1,0.1C603.5,235.9,601.4,235.9,599.2,235.9z M602.8,232.5
			c0.8,0,1.6,0,2.3,0c1-0.1,1.6-0.6,1.6-1.7c0-7.8,0-15.4,0-23.2c0-1-0.6-1.5-1.4-1.6c-0.8-0.1-1.7,0-2.5,0
			C602.8,214.8,602.8,223.6,602.8,232.5z"/>
		<path class="st0" d="M273.2,235.8c-1.2,0-2.2,0-3.4,0c0-1,0-1.8,0-2.7c0-2.9,0-5.7,0-8.6c0-2.8-0.6-3.3-3.5-3c0,4.7,0,9.4,0,14.2
			c-1.2,0-2.3,0-3.4,0c0-11.1,0-22.2,0-33.3c2.4,0,4.7-0.2,7,0.1c1.9,0.2,3.4,1.9,3.4,3.9c0.1,3.7,0.1,7.3,0,11
			c0,0.9-0.5,1.7-0.7,2.6c0.2,0.7,0.7,1.5,0.7,2.3C273.3,226.9,273.2,231.4,273.2,235.8z M266.3,218.2c0.6,0,1.1,0,1.7,0
			c1.2,0,1.8-0.6,1.8-1.8c0-3,0-6.1,0-9.1c0-0.9-0.4-1.5-1.3-1.6c-0.7-0.1-1.4,0-2.2,0C266.3,210,266.3,214.1,266.3,218.2z"/>
		<path class="st0" d="M516.6,202.5c0,4,0,7.8,0,11.8c0,3.3-0.2,2.9,2.9,2.9c0.5,0,1,0,1.7,0c0-4.9,0-9.7,0-14.6
			c0.9,0,1.7-0.2,2.4,0.1c0.4,0.1,0.7,0.6,1,1c0.2,0.2,0.1,0.5,0.1,0.7c0,10.2,0,20.3,0,30.4c0,0.3,0,0.6,0,1c-1.1,0-2.2,0-3.4,0
			c0-0.4,0-0.8,0-1.1c0-4.2,0-8.4,0-12.6c0-1.4-0.2-1.5-1.6-1.5c-1,0-1.9,0-3,0c0,5.1,0,10.2,0,15.3c-1.2,0-2.2,0-3.4,0
			c0-0.3,0-0.7,0-1c0-10.1,0-20.2,0-30.3c0-1.6,0.3-1.9,2-1.9C515.6,202.5,516.1,202.5,516.6,202.5z"/>
		<path class="st0" d="M382.1,235.8c-1-7.4-1.9-14.8-2.9-22.2c-0.1,0-0.2,0-0.2,0c-1,7.4-1.9,14.7-2.9,22.2c-1.3,0-2.5,0-3.8,0
			c1.7-11.1,3.4-22.2,5-33.3c0.2,0,0.4-0.1,0.6-0.1c2.7-0.1,2.9,0.1,3.3,2.7c1.5,10.1,3,20.1,4.6,30.1c0,0.2,0,0.2,0,0.5
			C384.7,235.8,383.5,235.8,382.1,235.8z"/>
		<path class="st0" d="M296.3,216.7c1.8,0,3.4,0,5.1,0c-0.5,1-0.7,1.9-1.3,2.6c-0.3,0.4-1,0.6-1.6,0.7c-0.5,0.1-1-0.1-1.4,0.1
			c-0.3,0.1-0.8,0.5-0.8,0.7c-0.1,3.8,0,7.7,0,11.5c2.4,0,4.6,0,7.1,0c-0.5,1-0.8,1.9-1.3,2.7c-0.2,0.3-0.8,0.6-1.2,0.6
			c-2.6,0.1-5.4,0-8.2,0c0-0.4,0-0.7,0-1.1c0-10.2,0-20.4,0-30.5c0-1.4,0.2-1.7,1.7-1.7c2.7,0,5.4,0,8.3,0c-0.5,1-0.8,1.9-1.4,2.7
			c-0.3,0.4-1,0.6-1.6,0.7c-0.9,0.1-1.8,0-2.6,0c-0.6,0-1,0.2-1,0.8C296.3,210,296.3,213.3,296.3,216.7z"/>
		<path class="st0" d="M435.1,216.7c1.7,0,3.4,0,5.1,0c-0.4,1-0.7,1.9-1.2,2.6c-0.3,0.4-1,0.6-1.5,0.8c-0.4,0.2-0.9,0-1.4,0
			c-0.7,0-1,0.3-1,1c0,3.6,0,7.2,0,10.9c0,0.1,0,0.2,0.1,0.4c2.3,0,4.6,0,7.1,0c-0.5,1-0.7,1.9-1.3,2.6c-0.2,0.4-0.9,0.7-1.4,0.7
			c-2.6,0.1-5.2,0-8,0c0-0.4,0-0.7,0-1c0-10.2,0-20.5,0-30.7c0-1.4,0.2-1.6,1.6-1.6c2.7,0,5.4,0,8.3,0c-0.5,1-0.8,1.9-1.4,2.7
			c-0.3,0.4-1,0.6-1.6,0.7c-0.9,0.1-1.8-0.1-2.6,0.1c-0.4,0.1-1,0.5-1,0.7C435,210,435.1,213.3,435.1,216.7z"/>
		<path class="st0" d="M639.4,202.6c-0.5,1-0.8,1.9-1.3,2.6c-0.3,0.4-1,0.6-1.6,0.7c-0.9,0.1-1.8,0-2.6,0.1c-0.3,0-0.9,0.5-0.9,0.7
			c-0.1,3.3-0.1,6.6-0.1,10c1.7,0,3.3,0,5.1,0c-0.5,1-0.7,1.9-1.3,2.7c-0.3,0.4-1,0.6-1.7,0.7c-0.4,0.1-1-0.1-1.4,0.1
			c-0.3,0.2-0.8,0.5-0.9,0.8c-0.1,3.8,0,7.6,0,11.4c2.4,0,4.6,0,7.2,0c-0.5,1-0.8,1.9-1.4,2.7c-0.2,0.4-0.9,0.6-1.4,0.7
			c-2.6,0.1-5.2,0-7.8,0c0-0.4-0.1-0.7-0.1-1c0-10.2,0-20.4,0-30.6c0-1.5,0.2-1.8,1.7-1.8c2.4,0,4.8,0,7.2,0
			C638.6,202.5,638.9,202.6,639.4,202.6z"/>
		<path class="st0" d="M357.6,202.6c-0.5,1-0.7,1.9-1.3,2.6c-0.3,0.4-1,0.6-1.7,0.7c-0.9,0.2-1.8,0.1-2.6,0c-0.6,0-1,0.3-1,0.9
			c0,3.2,0,6.4,0,9.6c0,0.1,0.1,0.1,0.2,0.2c1.6,0,3.2,0,5,0c-0.4,1-0.6,1.9-1.2,2.6c-0.3,0.5-1.1,0.6-1.7,0.8c-0.4,0.1-0.8,0-1.3,0
			c-0.6,0-1,0.3-1,1c0,3.8,0,7.5,0,11.4c2.4,0,4.7,0,7.2,0c-0.5,1-0.7,1.9-1.2,2.6c-0.2,0.4-1,0.7-1.4,0.8c-2.6,0.1-5.2,0-7.8,0
			c0-0.4-0.1-0.7-0.1-1c0-10.2,0-20.6,0-30.8c0-1.4,0.2-1.5,1.6-1.5c2.5,0,5,0,7.5,0C356.9,202.5,357.2,202.6,357.6,202.6z"/>
		<path class="st0" d="M547,216.7c1.8,0,3.4,0,5.1,0c-0.4,1-0.7,1.9-1.3,2.6c-0.3,0.4-1,0.6-1.5,0.8c-0.4,0.1-0.9,0-1.4,0
			c-0.7,0-1,0.3-1,1c0,3.8,0,7.4,0,11.3c2.4,0,4.7,0,7.2,0c-0.5,1-0.8,1.9-1.3,2.7c-0.2,0.4-0.8,0.7-1.3,0.7c-2.6,0.1-5.3,0-8.1,0
			c0-0.4,0-0.8,0-1.1c0-10.2,0-20.4,0-30.6c0-1.5,0.2-1.7,1.6-1.7c2.7,0,5.4,0,8.3,0c-0.5,1-0.8,2-1.4,2.7c-0.3,0.4-1,0.6-1.6,0.7
			c-0.9,0.1-1.8-0.1-2.6,0.1c-0.4,0.1-1,0.5-1,0.7C547,210,547,213.3,547,216.7z"/>
		<path class="st0" d="M499.4,202.5c-0.4,1-0.7,1.8-1.3,2.6c-0.3,0.4-1,0.7-1.6,0.8c-0.7,0.2-1.5,0-2.3,0c-1,0-1.4,0.2-1.4,1.4
			c0,3.4,0,6.6,0,10c0,5.8,0,11.6,0,17.4c0,0.4,0,0.8,0,1.3c-0.9,0-1.8,0.1-2.6,0c-0.2,0-0.6-0.5-0.7-0.8c-0.1-0.2,0-0.6,0-0.9
			c0-9,0-18,0-27c0-0.4,0-0.8,0-1.3c-1.7,0-3.2,0-4.8,0c0-0.9-0.1-1.8,0.1-2.6c0.1-0.3,0.6-0.8,0.9-0.8
			C490.2,202.5,494.7,202.5,499.4,202.5z"/>
		<path class="st0" d="M324.5,232.5c2.6,0,5.1,0,7.8,0c-0.4,1-0.7,1.8-1.2,2.6c-0.3,0.4-1,0.8-1.4,0.8c-2.8,0.1-5.6,0-8.5,0
			c0-11.1,0-22.2,0-33.3c0.8,0,1.7-0.1,2.4,0.1c0.4,0.1,0.7,0.6,1,1c0.2,0.2,0,0.6,0,0.9c0,9,0,17.8,0,26.8
			C324.5,231.6,324.5,232,324.5,232.5z"/>
		<path class="st0" d="M686.4,202.6c3.7-0.3,3.4,0.2,3.4,2.8c0,9.8,0,19.4,0,29.2c0,0.4,0,0.8,0,1.4c-0.9,0-1.8,0-2.6,0
			c-0.6,0-0.9-0.3-0.9-1c0-0.2,0-0.4,0-0.6c0-10.2,0-20.5,0-30.7C686.4,203.3,686.4,203,686.4,202.6z"/>
		<path class="st0" d="M745.5,48.9c0,35.3,0,70.6,0,105.9c-2.1,0-4.2,0.2-6.2,0c-3-0.2-4.9-2.2-5.6-5c-1.1-4.4-2.1-8.9-3-13.4
			c-2.9-13-5.8-26-8.6-39c-0.1-0.2-0.2-0.5-0.4-0.7c0,19.4,0,38.7,0,58.1c-3.7,0-7.3,0-10.9,0c0-35.3,0-70.6,0-106
			c2.8,0.1,5.7-0.3,8.5,0.4c2.5,0.6,3.6,2.5,4.1,4.8c2.2,10.4,4.2,20.9,6.3,31.3c1.5,7.6,3.1,15.2,4.6,22.8c0.1,0.2,0.2,0.5,0.3,0.7
			c0-20,0-39.9,0-60C738.3,48.9,741.9,48.9,745.5,48.9z"/>
		<path class="st0" d="M353.8,48.9c0.5,0,0.9,0,1.2,0c6.1,0,12.2,0,18.3,0c7.8,0,13.6,5.8,13.6,13.6c0,11.1,0,22.2,0,33.4
			c0,1.4-0.2,2.8-0.5,4.2c-0.4,1.8-1.2,3.5-3.2,4.3c3.2,2.4,3.7,5.8,3.7,9.4c0.1,13.4,0,27,0,40.4c0,0.2,0,0.5-0.1,0.8
			c-3.6,0-7.2,0-10.9,0c0-0.4,0-0.8,0-1.2c0-12.6,0-25.1,0-37.7c0-1.2-0.2-2.4-0.6-3.5c-0.6-1.7-1.9-2.8-3.7-3c-2.2-0.2-4.6,0-6.9,0
			c0,15.1,0,30.2,0,45.4c-3.7,0-7.3,0-11,0C353.8,119.6,353.8,84.3,353.8,48.9z M364.7,59.1c0,0.4,0,0.8,0,1.2c0,12.5,0,25,0,37.4
			c0,0.2,0,0.4,0,0.6c-0.1,0.6,0.2,0.7,0.7,0.7c1.7,0,3.4,0.1,5.1,0c3.7-0.2,5.5-2,5.5-5.5c0-9.8,0-19.6,0-29.4
			c0-2.6-1.6-4.6-4.2-4.9C369.5,58.9,367.2,59.1,364.7,59.1z"/>
		<path class="st0" d="M276.2,48.9c0,12.7,0,25.3,0,37.8c0.1,0,0.2,0,0.2,0c0.6-1.8,1.2-3.5,1.8-5.3c3.7-10.5,7.3-21,11-31.5
			c0.2-0.5,0.2-0.9,1-0.9c3.4,0,6.9,0,10.2,0c0.2,0,0.2,0,0.5,0.1c-1,2.8-2,5.5-3,8.2c-4.6,12.9-9.3,25.8-13.8,38.7
			c-0.2,0.4-0.2,1,0,1.4c5.9,18.7,11.8,37.3,17.7,56.1c0.1,0.4,0.2,0.7,0.3,1.2c-0.3,0-0.6,0.1-0.9,0.1c-3.2,0-6.4,0-9.6,0
			c-0.7,0-1-0.2-1.2-0.9c-4.6-15-9.1-29.8-13.8-44.8c-0.1-0.3-0.2-0.7-0.5-1c0,15.5,0,30.9,0,46.5c-3.6,0-7.1,0-10.8,0
			c0-0.3,0-0.6,0-1c0-33.4,0-66.9,0-100.3c0-0.6,0-1.1,0.2-1.7c0.3-1.8,1.4-3,3.2-3C271.2,48.8,273.6,48.9,276.2,48.9z"/>
		<path class="st0" d="M543.1,86.7c1-2.8,1.9-5.6,2.9-8.4c3.3-9.4,6.6-18.9,9.8-28.3c0.2-0.6,0.6-0.9,1.2-0.9c3.2,0,6.3,0,9.5,0
			c0.3,0,0.6,0,1,0c-0.9,2.3-1.7,4.6-2.5,6.9c-4.8,13.4-9.6,26.7-14.3,40.1c-0.2,0.5-0.2,1.2,0,1.7c5.9,18.7,11.8,37.4,17.7,56.1
			c0.1,0.3,0.2,0.6,0.2,1c-3.8,0-7.6,0-11.4,0c-4.8-15.5-9.5-31-14.3-46.5c-0.1,0-0.2,0-0.2,0c0,15.5,0,30.9,0,46.5
			c-3.6,0-7.1,0-10.7,0c0-0.3-0.1-0.7-0.1-1c0-33.6,0-67.2,0-100.8c0-2.9,1.4-4.2,4.2-4.2c2.1,0,4.2,0,6.2,0c0.1,0,0.1,0.1,0.2,0.1
			c0,12.6,0,25.1,0,37.7C542.9,86.7,543,86.7,543.1,86.7z"/>
		<path class="st0" d="M449.4,154.8c-4,0-8,0-12,0c0.6-3.6,1-7.1,1.6-10.6c1.2-7.8,2.4-15.6,3.5-23.4c1.2-7.8,2.4-15.7,3.5-23.5
			c1.2-7.8,2.4-15.7,3.5-23.5c1.2-8.1,2.5-16.2,3.7-24.2c0.1-0.2,0.4-0.7,0.6-0.7c2.1-0.1,4.2-0.2,6.2,0c2.6,0.2,4,1.4,4.6,4.1
			c0.6,3.2,1,6.4,1.5,9.5c1.4,8.6,2.6,17.2,3.9,25.8c1.3,8.2,2.5,16.4,3.8,24.6c1.4,9,2.8,18.2,4.2,27.2c0.7,4.7,1.4,9.4,2.2,14.2
			c0,0.2,0,0.5,0.1,0.7c-4,0-7.9,0-11.9,0c-3.1-24.1-6.3-48.1-9.4-72.2c-0.1,0-0.2,0-0.2,0C455.7,106.7,452.5,130.8,449.4,154.8z"/>
		<path class="st0" d="M624.9,154.9c0-0.5,0-0.8,0-1.1c0-33.7,0-67.4,0-101.2c0-2.5,1.3-3.8,3.8-3.8c9,0,17.8,0,26.8,0
			c0.3,0,0.6,0,1.1,0c-0.2,0.3-0.2,0.6-0.3,0.8c-1,2.1-2,4.2-2.9,6.2c-1.1,2.7-3.2,3.8-5.9,3.8c-2.9,0-5.7,0-8.6,0c-2.1,0-3,0.9-3,3
			c0,10,0,20,0,30.1c0,1,0.3,1.1,1.1,1.1c4.6,0,9.3,0,13.9,0c0.4,0,0.7,0,1.3,0c-0.2,0.5-0.3,0.8-0.5,1.1c-0.8,1.8-1.7,3.7-2.3,5.5
			c-1.1,3.1-3.4,4.3-6.5,4.3c-1.4,0-2.8,0-4.2,0c-1.7,0-2.8,1-2.8,2.7c0,12,0,23.9,0,35.9c0,0.2,0.1,0.4,0.1,0.7c7.5,0,15,0,22.6,0
			c-0.2,0.4-0.2,0.6-0.3,0.9c-0.9,2-1.8,3.9-2.6,5.9c-1,2.6-3,3.8-5.6,3.9c-0.5,0-0.9,0-1.4,0c-7.5,0-15,0-22.6,0
			C625.8,154.9,625.4,154.9,624.9,154.9z"/>
	</g>
</g>
</svg>
